<svg width="40" height="40" viewBox="0 0 40 40" xmlns="http://www.w3.org/2000/svg">
  <g fill="#128C45" fill-opacity="0.1">
    <!-- Dollar Sign -->
    <path d="M20 10V30" stroke-width="2" stroke="#128C45" stroke-opacity="0.12"/>
    <path d="M24 13C24 11.3431 22.2091 10 20 10C17.7909 10 16 11.3431 16 13C16 14.6569 17.7909 16 20 16C22.2091 16 24 17.3431 24 19C24 20.6569 22.2091 22 20 22C17.7909 22 16 20.6569 16 19" stroke-width="2" stroke="#128C45" stroke-opacity="0.12"/>
    <!-- Small Dollar Signs -->
    <path d="M10 5V15" stroke-width="1" stroke="#128C45" stroke-opacity="0.08"/>
    <path d="M12 6.5C12 5.67157 11.1046 5 10 5C8.89543 5 8 5.67157 8 6.5C8 7.32843 8.89543 8 10 8C11.1046 8 12 8.67157 12 9.5C12 10.3284 11.1046 11 10 11C8.89543 11 8 10.3284 8 9.5" stroke-width="1" stroke="#128C45" stroke-opacity="0.08"/>

    <path d="M30 25V35" stroke-width="1" stroke="#128C45" stroke-opacity="0.08"/>
    <path d="M32 26.5C32 25.6716 31.1046 25 30 25C28.8954 25 28 25.6716 28 26.5C28 27.3284 28.8954 28 30 28C31.1046 28 32 28.6716 32 29.5C32 30.3284 31.1046 31 30 31C28.8954 31 28 30.3284 28 29.5" stroke-width="1" stroke="#128C45" stroke-opacity="0.08"/>
  </g>
</svg>