<svg width="40" height="40" viewBox="0 0 40 40" xmlns="http://www.w3.org/2000/svg">
  <g fill="#BC002D" fill-opacity="0.1">
    <!-- Main Flower -->
    <circle cx="20" cy="20" r="2" />
    <!-- Petals -->
    <path d="M20 15C21 15 22 15.5 22 17C22 18.5 21 19 20 19C19 19 18 18.5 18 17C18 15.5 19 15 20 15Z" />
    <path d="M20 21C21 21 22 21.5 22 23C22 24.5 21 25 20 25C19 25 18 24.5 18 23C18 21.5 19 21 20 21Z" />
    <path d="M25 20C25 19 25.5 18 27 18C28.5 18 29 19 29 20C29 21 28.5 22 27 22C25.5 22 25 21 25 20Z" />
    <path d="M15 20C15 19 15.5 18 17 18C18.5 18 19 19 19 20C19 21 18.5 22 17 22C15.5 22 15 21 15 20Z" />
    <!-- Diagonal Petals -->
    <path d="M23 17C24 16 25 16 26 17.5C27 19 26.5 20 25.5 21C24.5 22 23.5 21.5 22.5 20C21.5 18.5 22 18 23 17Z" />
    <path d="M17 23C16 24 16 25 17.5 26C19 27 20 26.5 21 25.5C22 24.5 21.5 23.5 20 22.5C18.5 21.5 18 22 17 23Z" />
    <path d="M23 23C24 24 24 25 22.5 26C21 27 20 26.5 19 25.5C18 24.5 18.5 23.5 20 22.5C21.5 21.5 22 22 23 23Z" />
    <path d="M17 17C16 16 16 15 17.5 14C19 13 20 13.5 21 14.5C22 15.5 21.5 16.5 20 17.5C18.5 18.5 18 18 17 17Z" />
  </g>
</svg>